<svg xmlns="http://www.w3.org/2000/svg" viewBox="0 0 400 300" role="img" aria-labelledby="title desc">
  <title id="title">Illustration bateau</title>
  <desc id="desc">Image de remplacement pour une photo de bateau</desc>
  <defs>
    <linearGradient id="sky" x1="0" y1="0" x2="0" y2="1">
      <stop offset="0%" stop-color="#dff1ff"/>
      <stop offset="100%" stop-color="#f8fcff"/>
    </linearGradient>
    <linearGradient id="sea" x1="0" y1="0" x2="1" y2="1">
      <stop offset="0%" stop-color="#4a90c2"/>
      <stop offset="100%" stop-color="#0f3a5f"/>
    </linearGradient>
  </defs>
  <rect width="400" height="300" fill="url(#sky)"/>
  <circle cx="322" cy="58" r="24" fill="#ffd97b"/>
  <rect y="190" width="400" height="110" fill="url(#sea)"/>
  <path d="M120 174h138l34 38H98z" fill="#f2f5f8" stroke="#0f3a5f" stroke-width="6" stroke-linejoin="round"/>
  <path d="M192 72v102" stroke="#0f3a5f" stroke-width="7" stroke-linecap="round"/>
  <path d="M192 80l76 45h-76z" fill="#ffffff" stroke="#0f3a5f" stroke-width="6" stroke-linejoin="round"/>
  <path d="M186 94l-54 38h54z" fill="#d6ebf8" stroke="#0f3a5f" stroke-width="6" stroke-linejoin="round"/>
  <path d="M52 226c16 0 16 10 32 10s16-10 32-10 16 10 32 10 16-10 32-10 16 10 32 10 16-10 32-10 16 10 32 10 16-10 32-10 16 10 32 10 16-10 32-10" fill="none" stroke="#9ed0ef" stroke-width="8" stroke-linecap="round"/>
  <text x="200" y="276" text-anchor="middle" font-family="Arial, sans-serif" font-size="26" font-weight="700" fill="#ffffff">Photo du bateau</text>
</svg>
